<svg width="22" height="29" viewBox="0 0 22 29" fill="none" xmlns="http://www.w3.org/2000/svg">
<path d="M12.1095 0C13.0567 0.23126 14.0279 0.38158 14.9391 0.716907C21.5813 3.12201 24.0991 10.9617 20.0466 16.5582C17.1691 20.5359 14.2796 24.5136 11.4022 28.4912C11.2942 28.6415 11.1744 28.7919 11.0185 29C10.8746 28.815 10.7547 28.6762 10.6468 28.5259C7.75733 24.5482 4.87984 20.5706 1.97836 16.6045C-2.69757 10.187 1.3669 1.19099 9.43587 0.11563C9.56775 0.092504 9.69964 0.0462527 9.83152 0.0115637C10.5869 7.05577e-07 11.3542 0 12.1095 0ZM10.8147 5.28429C7.76932 5.27273 5.29947 7.60846 5.28748 10.5223C5.27549 13.4246 7.74534 15.8182 10.7667 15.8297C13.8001 15.8413 16.2819 13.4709 16.2939 10.5686C16.3059 7.6547 13.86 5.29585 10.8147 5.28429Z" fill="#69A9E7"/>
</svg>
