<svg width="29" height="29" viewBox="0 0 29 29" fill="none" xmlns="http://www.w3.org/2000/svg">
<path d="M0.00175175 14.4974C0.00175175 11.1847 0.00175175 7.872 0.00175175 4.55932C0.00175175 2.64034 0.891204 1.27465 2.59307 0.420214C3.2444 0.0980499 3.95176 0.00700399 4.66612 0.00700399C11.2004 4.27359e-07 17.7348 0 24.2691 0C26.9234 0 28.4992 1.74389 28.8494 3.58582C28.9195 3.95001 28.9545 4.3282 28.9615 4.69939C28.9685 11.2337 28.9685 17.768 28.9685 24.3024C28.9685 26.6556 27.5678 28.4275 25.3476 28.8897C25.0115 28.9597 24.6543 28.9947 24.3041 28.9947C17.7488 29.0017 11.1864 29.0017 4.6311 28.9947C2.00477 28.9947 0.407958 27.2369 0.0717874 25.3459C0.00875531 25.0027 0.0087536 24.6525 0.0087536 24.3024C-0.00525353 21.0317 0.00175175 17.761 0.00175175 14.4974ZM11.0814 9.79798C11.2004 9.85401 11.2705 9.89603 11.3475 9.91004C11.8868 10.0221 12.1809 10.3583 12.244 10.8905C12.286 11.2617 12.356 11.6329 12.335 12.0041C12.3 12.7185 12.251 13.4398 12.1319 14.1472C12.0689 14.5324 11.7607 14.6094 11.4456 14.3713C11.2635 14.2312 11.0954 14.0561 10.9553 13.8741C10.0729 12.7185 9.40053 11.4438 8.84725 10.0991C8.66516 9.65791 8.364 9.4408 7.88076 9.4478C7.00531 9.45481 6.12987 9.4478 5.25442 9.4478C4.53306 9.4478 4.34396 9.73495 4.63811 10.3933C5.44352 12.2072 6.34698 13.9721 7.42553 15.639C8.19592 16.8226 9.02234 17.9641 10.1429 18.8606C11.7187 20.1072 13.5256 20.5274 15.4936 20.3664C15.9208 20.3313 16.131 20.1142 16.201 19.687C16.278 19.2178 16.313 18.7345 16.4601 18.2863C16.6492 17.705 17.0694 17.614 17.5457 18.0062C17.7138 18.1462 17.8678 18.3073 18.0219 18.4684C18.4001 18.8676 18.7293 19.3228 19.1495 19.659C19.5207 19.9601 19.9689 20.2963 20.4101 20.3313C21.4747 20.4294 22.5532 20.4014 23.6248 20.3524C24.4162 20.3173 24.6683 19.7781 24.2831 19.0847C24.1991 18.9306 24.115 18.7695 24.003 18.6435C23.2816 17.8661 22.5602 17.0887 21.8178 16.3323C21.0895 15.5899 21.0545 15.3448 21.6638 14.5114C21.6848 14.4834 21.7058 14.4554 21.7268 14.4273C22.3291 13.6219 22.9524 12.8375 23.5127 12.0111C23.8489 11.5139 24.136 10.9746 24.3811 10.4213C24.6403 9.833 24.3671 9.47582 23.7228 9.45481C23.6178 9.44781 23.5127 9.45481 23.4077 9.45481C22.4482 9.45481 21.4957 9.45481 20.5362 9.45481C19.9129 9.45481 19.8078 9.52485 19.5767 10.1061C19.1285 11.2407 18.5822 12.3193 17.8748 13.3068C17.6297 13.6499 17.3706 13.9791 17.0694 14.2733C16.7052 14.6164 16.3901 14.5044 16.271 14.0141C16.222 13.811 16.194 13.6009 16.194 13.3908C16.208 12.3403 16.25 11.2897 16.25 10.2462C16.257 9.50383 16.0119 9.16766 15.3325 9.06261C14.198 8.89452 13.0564 8.88052 11.9288 9.10463C11.5646 9.18867 11.2635 9.38477 11.0814 9.79798Z" fill="#69A9E7"/>
</svg>
