<svg width="30" height="29" viewBox="0 0 30 29" fill="none" xmlns="http://www.w3.org/2000/svg">
<path d="M0.970258 14.4974C0.970258 11.1847 0.970258 7.87198 0.970258 4.55932C0.970258 2.64036 1.85971 1.27464 3.56158 0.420214C4.21291 0.0980516 4.92026 0.00700399 5.63463 0.00700399C12.1689 4.65676e-07 18.7033 0 25.2376 0C27.892 0 29.4678 1.7439 29.8179 3.58582C29.888 3.95001 29.923 4.3282 29.93 4.69939C29.937 11.2337 29.937 17.7681 29.937 24.3024C29.937 26.6555 28.5363 28.4275 26.3161 28.8897C25.98 28.9597 25.6228 28.9947 25.2726 28.9947C18.7173 29.0018 12.1549 29.0018 5.59961 28.9947C2.97327 28.9947 1.37646 27.2368 1.04029 25.3459C0.977261 25.0027 0.977259 24.6525 0.977259 24.3024C0.963252 21.0317 0.970258 17.761 0.970258 14.4974Z" fill="#EB1C24"/>
<path d="M22.4846 14.9677L11.2588 8.48652V21.449L22.4846 14.9677Z" fill="white"/>
</svg>
